{"title":"Baar Baar Dekho (2016) x264 DesiSCR Rip AC3 5.1 -DDR","uid":15794975,"size":1609204205,"categoryP":"video","categoryS":"movies","magnet":"?xt=urn:btih:e3441c915f57d2abb866dad2f23c0d7954285a0a&amp;dn=Baar+Baar+Dekho+%282016%29+x264+DesiSCR+Rip+AC3+5.1+-DDR&amp;tr=udp%3A%2F%2Ftracker.leechers-paradise.org%3A6969&amp;tr=udp%3A%2F%2Fzer0day.ch%3A1337&amp;tr=udp%3A%2F%2Fopen.demonii.com%3A1337&amp;tr=udp%3A%2F%2Ftracker.coppersurfer.tk%3A6969&amp;tr=udp%3A%2F%2Fexodus.desync.com%3A6969","seeders":1486,"leechers":934,"uploader":"SaM","files":3,"time":1473445165,"description":"\nBaar Baar Dekho\r\n\r\n1/3 DvD x264 DesiSCR Rip\r\n\r\nHindi AC3 5.1 Audio\r\n \nhttp://extraimago.com/image/wi1M \nhttp://extraimago.com/image/wi19 \nhttp://extraimago.com/image/wi13 \nhttp://extraimago.com/image/wi1b \nhttp://extraimago.com/image/wi1h \nhttp://extraimago.com/image/wi1d \nhttp://extraimago.com/image/wi1I \nhttp://extraimago.com/image/wi1l \nhttp://extraimago.com/image/wi1i \nhttp://extraimago.com/image/wi1m \nhttp://extraimago.com/image/wi1R \nhttp://extraimago.com/image/wi1Q \nhttp://extraimago.com/image/wi1L \nhttp://extraimago.com/image/wi1y\r\n\r\nSpecs:\r\nSource: DesiSCR @ ICTV\r\n\r\nFormat : Matroska\r\nFile size : 1.49 GiB\r\nDuration : 2 h 20 min\r\nOverall bit rate : 1 518 kb/s\r\n\r\nVideo\r\nFormat : AVC\r\nFormat/Info : Advanced Video Codec\r\nFormat profile :   \r\nFormat settings, CABAC : Yes\r\nFormat settings, ReFrames : 16 frames\r\nCodec ID : V_MPEG4/ISO/AVC\r\nDuration : 2 h 20 min\r\nBit rate : 1 260 kb/s\r\nWidth : 720 pixels\r\nHeight : 304 pixels\r\nDisplay aspect ratio : 2.35:1\r\nFrame rate mode : Constant\r\nFrame rate : 25.000 FPS\r\nColor space : YUV\r\nChroma subsampling : 4:2:0\r\nBit depth : 8 bits\r\nScan type : Progressive\r\nBits/(Pixel*Frame) : 0.230\r\nStream size : 1.24 GiB (83%)\r\nDefault : Yes\r\nForced : No\r\nColor range : Limited\r\nColor primaries : BT.601 NTSC\r\nTransfer characteristics : BT.470 System B, BT.470 System G\r\nMatrix coefficients : BT.601\r\n\r\nAudio\r\nID : 2\r\nFormat : AC-3\r\nFormat/Info : Audio Coding 3\r\nMode extension : CM (complete main)\r\nFormat settings, Endianness : Big\r\nCodec ID : A_AC3\r\nDuration : 2 h 20 min\r\nBit rate mode : Constant\r\nBit rate : 256 kb/s\r\nChannel(s) : 6 channels\r\nChannel positions : Front: L C R, Side: L R, LFE\r\nSampling rate : 48.0 kHz\r\nFrame rate : 31.250 FPS (1536 spf)\r\nCompression mode : Lossy\r\nStream size : 258 MiB (17%)\r\nLanguage : Hindi\r\nDefault : Yes\r\nForced : No\r\n\r\n\r\nSAMPLE Included","torrent":{"xt":"urn:btih:e3441c915f57d2abb866dad2f23c0d7954285a0a","amp;dn":"Baar+Baar+Dekho+%282016%29+x264+DesiSCR+Rip+AC3+5.1+-DDR","amp;tr":["udp%3A%2F%2Ftracker.leechers-paradise.org%3A6969","udp%3A%2F%2Fzer0day.ch%3A1337","udp%3A%2F%2Fopen.demonii.com%3A1337","udp%3A%2F%2Ftracker.coppersurfer.tk%3A6969","udp%3A%2F%2Fexodus.desync.com%3A6969"],"infoHash":"e3441c915f57d2abb866dad2f23c0d7954285a0a","infoHashBuffer":{"type":"Buffer","data":[227,68,28,145,95,87,210,171,184,102,218,210,242,60,13,121,84,40,90,10]},"announce":[],"urlList":[]}}